Coordinates
version=1
nRows=11
nColumns=36
inDegrees=yes

Units are S.I. units (second, meters, Newtons, ...)
If the header above contains a line with 'inDegrees', this indicates whether rotational values are in degrees (yes) or radians (no).

endheader
time	pelvis_tilt	pelvis_list	pelvis_rotation	pelvis_tx	pelvis_ty	pelvis_tz	hip_flexion_r	hip_adduction_r	hip_rotation_r	knee_angle_r	knee_angle_r_beta	ankle_angle_r	subtalar_angle_r	mtp_angle_r	hip_flexion_l	hip_adduction_l	hip_rotation_l	knee_angle_l	knee_angle_l_beta	ankle_angle_l	subtalar_angle_l	mtp_angle_l	lumbar_extension	lumbar_bending	lumbar_rotation	arm_flex_r	arm_add_r	arm_rot_r	elbow_flex_r	pro_sup_r	arm_flex_l	arm_add_l	arm_rot_l	elbow_flex_l	pro_sup_l
      1.09000000	      0.29270276	     -0.05097541	      2.77106251	      1.13786847	      1.04620013	     -0.17716947	     20.71061906	      1.95405266	     -8.32971974	     10.66661679	      0.18616758	     -2.71150325	     -4.99243101	     -7.18756713	     -7.32370095	      2.68471682	      7.97720925	      6.80472466	      0.11876485	     15.05444815	      1.36464725	     -7.18756713	     -9.37149770	     -5.60879407	     -9.45192520	    -19.01464043	     -0.77851607	    -23.30458893	     54.10220430	    103.84402805	     16.88507674	    -22.72304712	      4.20577018	     55.90894281	     98.02348173
      1.10000000	      0.36918510	      0.02123074	      3.03848608	      1.14920582	      1.04431602	     -0.17752259	     20.31361157	      1.80624620	     -8.65475923	      7.82480860	      0.13656867	     -2.12713002	     -2.38414786	     -7.20909230	     -7.97441807	      2.67664281	      7.84031164	      7.06593816	      0.12332389	     15.92584292	      2.03114042	     -7.20909230	     -9.32152946	     -5.33280331	     -8.94033035	    -19.23776464	     -0.25061445	    -24.37036908	     54.11213386	    104.04660964	     18.93839944	    -22.87158946	      6.30671842	     55.71295394	     97.92361655
      1.11000000	      0.31983122	      0.06100403	      3.25583850	      1.16061252	      1.04228611	     -0.17776525	     20.00660562	      1.76974702	     -8.09554994	      5.21806415	      0.09107240	     -1.73961226	     -0.76249165	     -7.21387618	     -8.45487942	      2.67381156	      7.97436976	      7.41410038	      0.12940046	     16.57025584	      1.97437344	     -7.21387618	     -9.14683048	     -5.04720369	     -8.98796422	    -19.08961169	     -0.00980892	    -24.69754684	     53.72922529	    104.06006946	     20.02338063	    -23.06092058	      6.83321000	     56.38722845	     97.97413063
      1.12000000	      0.35772990	      0.05314151	      3.47103697	      1.17217249	      1.04034827	     -0.17799647	     19.72218467	      1.71229410	     -7.91373528	      3.24983544	      0.05672033	     -0.54653524	      1.70709206	     -7.22661545	     -8.94508613	      2.58947837	      7.89481850	      7.92934395	      0.13839316	     17.30426343	      2.37845809	     -7.22661545	     -9.04137324	     -4.69056705	     -8.68265614	    -19.11522390	      0.35269227	    -25.45987073	     53.49829269	    104.18560748	     21.51325611	    -23.13364446	      8.21173829	     56.59083268	     97.91921203
      1.13000000	      0.22076781	      0.01189079	      3.62983656	      1.18373590	      1.03822987	     -0.17821705	     19.68580227	      1.71433414	     -6.92527606	      1.81961164	      0.03175821	      0.26762422	      2.75175844	     -7.22862586	     -9.17713147	      2.52733760	      8.02278329	      8.59336989	      0.14998260	     17.78935514	      2.16861009	     -7.22862586	     -8.74245222	     -4.30857349	     -8.63030985	    -19.00027899	      0.46626241	    -25.61560532	     53.11907702	    104.17980128	     22.43023103	    -23.07537431	      8.43234879	     57.19077493	     97.96852097
      1.14000000	      0.30577454	     -0.06992804	      3.76592907	      1.19551741	      1.03645953	     -0.17834564	     19.61443528	      1.68948027	     -6.88548464	      1.25663462	      0.02193241	      1.97810007	      5.28585678	     -7.24053462	     -9.60065823	      2.37769463	      7.85925329	      9.36489498	      0.16344825	     18.54028738	      2.45830064	     -7.24053462	     -8.66765333	     -3.87240422	     -8.22820487	    -18.97102481	      0.74556912	    -26.34677445	     52.70854865	    104.28074076	     23.79210150	    -23.06778121	      9.86931326	     57.30036294	     97.91461868
      1.15000000	      0.33505052	     -0.23817826	      3.87890725	      1.20748855	      1.03477203	     -0.17842479	     19.53300098	      1.82021877	     -6.02424903	      0.97355817	      0.01699180	      2.67820927	      5.79722025	     -7.24228852	     -9.93603797	      2.16878036	      7.95412523	     10.21008635	      0.17819962	     18.91371532	      2.17341888	     -7.24228852	     -8.52275502	     -3.33157051	     -8.06554344	    -18.91430992	      0.75714615	    -26.41118857	     52.32535968	    104.27358137	     24.54234251	    -22.88533745	     10.02049638	     57.87253439	     97.95857768
      1.16000000	      0.47103453	     -0.44627268	      3.98419256	      1.21977413	      1.03334938	     -0.17839008	     19.34227305	      2.00332246	     -5.42410945	      1.12742482	      0.01967728	      3.39074822	      6.43681569	     -7.25262664	    -10.34276381	      1.88230754	      7.84016066	     11.15953655	      0.19477066	     19.44088352	      2.23484340	     -7.25262664	     -8.44276550	     -2.76085383	     -7.71355739	    -18.90479317	      0.83368353	    -26.72127713	     51.83826537	    104.31370690	     25.49957783	    -22.76989921	     11.02608683	     58.09733656	     97.91191065
      1.17000000	      0.67298803	     -0.72593039	      4.12737278	      1.23236466	      1.03219771	     -0.17833882	     19.02421294	      2.28821065	     -4.91930432	      1.52796613	      0.02666804	      3.48303522	      6.36354087	     -7.25464763	    -10.80762966	      1.51187138	      7.89146742	     12.14863966	      0.21203376	     19.61670343	      1.94311277	     -7.25464763	     -8.43253820	     -2.10556627	     -7.51089497	    -18.92210530	      0.78343399	    -26.74700456	     51.43754092	    104.29693098	     26.05255378	    -22.50361639	     11.19090699	     58.66145801	     97.95364554
      1.18000000	      0.89567732	     -1.01476187	      4.23799825	      1.24518941	      1.03127009	     -0.17815743	     18.72229462	      2.61247304	     -4.61238249	      2.29818737	      0.04011094	      3.29936444	      6.09885293	     -7.25593715	    -11.29437375	      1.13206171	      7.97060410	     13.14877228	      0.22948937	     19.60615197	      1.74562001	     -7.25593715	     -8.41505418	     -1.42341671	     -7.31278683	    -18.93879331	      0.73782765	    -26.75996879	     51.03645190	    104.27312880	     26.47558313	    -22.28366891	     11.36541805	     59.18302110	     98.00285640
      1.19000000	      1.10713745	     -1.30935975	      4.34640790	      1.25819633	      1.03048608	     -0.17782186	     18.44503667	      2.98130043	     -4.56672105	      3.28140989	      0.05727141	      2.77486763	      5.21923960	     -7.25854306	    -11.65644701	      0.72558043	      7.79964999	     14.36680820	      0.25074811	     19.64613564	      1.47296293	     -7.25854306	     -8.35777188	     -0.79060493	     -7.03921811	    -18.93056055	      0.67095659	    -26.82430883	     50.44116510	    104.22814752	     26.80611811	    -22.05172365	     11.74693687	     59.79337492	     98.05924211
